<svg xmlns="http://www.w3.org/2000/svg" xmlns:xlink="http://www.w3.org/1999/xlink" width="210" height="56" viewBox="0 0 210 56">
    <defs>
        <path id="a" d="M.243.27h4.833v5.174H.243z"/>
        <path id="c" d="M.268.27h4.833v5.174H.268z"/>
        <path id="e" d="M0 55.111h210V0H0z"/>
    </defs>
    <g fill="none" fill-rule="evenodd">
        <path fill="#339898" d="M50.174 52.6c-.193.204-.455.305-.784.305h-1.13v-2.14h1.138c.324 0 .583.102.776.305.194.203.29.458.29.765s-.096.563-.29.766m-.84-2.823h-2.173v5.333h1.099v-1.218h1.067c.727 0 1.29-.194 1.687-.58.397-.387.596-.88.596-1.478s-.199-1.09-.596-1.477c-.398-.387-.958-.58-1.68-.58M54.285 53.358l.395-.98c.152-.372.314-.834.486-1.382l.493 1.383.395.979h-1.77zm.357-3.58L52.5 55.11h1.086l.334-.848h2.491l.342.848h1.086l-2.142-5.333h-1.055zM64.928 52.6c-.23.204-.538.305-.925.305h-1.316v-2.14h1.326c.386 0 .693.102.92.305.227.203.34.458.34.765a.978.978 0 0 1-.345.766m1.395.23c.196-.302.295-.634.295-.996 0-.598-.234-1.09-.7-1.477-.467-.387-1.123-.58-1.97-.58h-2.55v5.333h1.29v-1.218h.689c.374 0 .663-.006.866-.016l.92 1.234h1.574l-1.243-1.547c.357-.187.633-.431.829-.733M73.438 53.206l-.646-.662-.692.71.66.677a1.374 1.374 0 0 1-.676.168c-.441 0-.808-.162-1.101-.486a1.687 1.687 0 0 1-.44-1.173c0-.451.147-.84.44-1.163.293-.325.66-.487 1.101-.487.436 0 .8.162 1.09.487.29.324.436.712.436 1.163 0 .266-.058.521-.172.766m.549-2.655c-.506-.516-1.143-.773-1.911-.773s-1.404.257-1.91.773c-.507.516-.76 1.145-.76 1.89 0 .749.253 1.381.76 1.897.506.515 1.142.773 1.91.773.545 0 1.028-.132 1.448-.398l.381.383.693-.71-.35-.351c.332-.462.498-.994.498-1.595 0-.744-.254-1.373-.759-1.89M81.642 52.914c0 .34-.107.62-.32.839-.213.22-.477.329-.792.329-.315 0-.58-.11-.797-.329-.215-.219-.324-.498-.324-.839v-3.136h-1.104v3.185c0 .638.215 1.155.644 1.552.43.397.957.596 1.58.596.625 0 1.152-.2 1.581-.6.43-.4.644-.916.644-1.548v-3.185h-1.112v3.136zM86.612 52.831h2.99v-.98h-2.99v-1.086h3.15v-.987h-4.338v5.333h4.449v-.988h-3.26zM99.07 52.831h2.989v-.98H99.07v-1.086h3.15v-.987h-4.339v5.333h4.45v-.988h-3.26zM107.31 54.099c-.528 0-.966-.163-1.317-.487a1.54 1.54 0 0 1-.525-1.172c0-.457.178-.846.535-1.167.356-.322.82-.483 1.39-.483.44 0 .822.101 1.145.303l.753-.757c-.565-.372-1.228-.558-1.99-.558-.918 0-1.68.257-2.284.773-.605.515-.907 1.145-.907 1.89 0 .749.302 1.381.907 1.897.605.515 1.366.773 2.283.773.85 0 1.566-.22 2.15-.661l-.792-.766c-.36.276-.809.415-1.348.415"/>
        <g transform="translate(112.119 49.778)">
            <mask id="b" fill="#fff">
                <use xlink:href="#a"/>
            </mask>
            <path fill="#339898" d="M3.653 3.99a1.234 1.234 0 0 1-.986.472c-.4 0-.732-.157-.997-.472a1.706 1.706 0 0 1-.398-1.137c0-.438.132-.815.398-1.13.265-.314.597-.471.997-.471.394 0 .723.157.986.472.263.314.395.69.395 1.129 0 .444-.132.823-.395 1.137M2.66.27c-.696 0-1.272.25-1.73.75-.458.5-.687 1.111-.687 1.833 0 .727.23 1.34.687 1.841.458.5 1.034.75 1.73.75.695 0 1.271-.25 1.73-.75.457-.5.686-1.114.686-1.841 0-.722-.229-1.333-.687-1.833C3.931.52 3.355.27 2.66.27" mask="url(#b)"/>
        </g>
        <path fill="#339898" d="M122.229 49.778h-1.212v5.333h4.45v-.988h-3.238zM129.939 49.778l.866-1.778h-1.046l-.734 1.778z"/>
        <g transform="translate(127.246 49.778)">
            <mask id="d" fill="#fff">
                <use xlink:href="#c"/>
            </mask>
            <path fill="#339898" d="M3.678 3.99a1.234 1.234 0 0 1-.987.472c-.399 0-.731-.157-.997-.472a1.706 1.706 0 0 1-.397-1.137c0-.438.132-.815.397-1.13.266-.314.598-.471.997-.471.395 0 .724.157.987.472.263.314.394.69.394 1.129 0 .444-.131.823-.394 1.137M2.684.27c-.695 0-1.271.25-1.729.75-.458.5-.687 1.111-.687 1.833 0 .727.23 1.34.687 1.841.458.5 1.034.75 1.73.75.694 0 1.27-.25 1.729-.75.458-.5.687-1.114.687-1.841 0-.722-.23-1.333-.687-1.833-.458-.5-1.035-.75-1.73-.75" mask="url(#d)"/>
        </g>
        <path fill="#339898" d="M138.55 52.828h.884v.766c-.326.335-.735.503-1.227.503-.487 0-.891-.16-1.215-.483a1.592 1.592 0 0 1-.485-1.17c0-.452.162-.84.485-1.165.324-.325.728-.487 1.215-.487.463 0 .852.112 1.167.335l.704-.766a3.176 3.176 0 0 0-1.88-.583c-.847 0-1.549.258-2.107.774-.558.516-.837 1.147-.837 1.892 0 .751.279 1.383.837 1.897.558.513 1.26.77 2.107.77.504 0 .968-.095 1.39-.287a2.455 2.455 0 0 0 1.005-.799v-2.123h-2.043v.926z"/>
        <mask id="f" fill="#fff">
            <use xlink:href="#e"/>
        </mask>
        <path fill="#339898" d="M144.153 55.111h.89v-5.333h-.89zM150.911 54.099c-.527 0-.966-.163-1.316-.487a1.54 1.54 0 0 1-.525-1.172c0-.457.178-.846.535-1.167.356-.322.82-.483 1.39-.483.44 0 .822.101 1.144.303l.753-.757c-.564-.372-1.228-.558-1.99-.558-.918 0-1.679.257-2.283.773-.605.515-.907 1.145-.907 1.89 0 .749.302 1.381.907 1.897.604.515 1.365.773 2.283.773.85 0 1.566-.22 2.149-.661l-.791-.766c-.36.276-.81.415-1.349.415M159.487 53.612c-.29.325-.653.487-1.09.487-.44 0-.807-.162-1.1-.487a1.687 1.687 0 0 1-.44-1.172c0-.451.146-.84.44-1.163.293-.325.66-.487 1.1-.487.437 0 .8.162 1.09.487.29.324.436.712.436 1.163 0 .458-.145.848-.436 1.172m-1.097-3.834c-.768 0-1.405.257-1.91.773-.507.515-.76 1.145-.76 1.89 0 .749.253 1.381.76 1.897.505.515 1.142.773 1.91.773s1.405-.258 1.91-.773c.506-.516.76-1.148.76-1.898 0-.744-.254-1.374-.76-1.889-.505-.516-1.142-.773-1.91-.773M105.203 18.1c-.437-.967-1.005-1.795-1.69-2.462-.637-.619-1.433-1.169-2.365-1.634a14.206 14.206 0 0 0-2.332-.934l-1.805-.535-.896 2.97.88-2.974-2.549-.739-.632-.262c-.382-.198-.59-.363-.7-.47-.066-.065-.2-.224-.347-.556-.095-.214-.141-.497-.14-.84.007-1.015.367-1.425.756-1.717.763-.574 1.698-.855 2.856-.858h.025c1.78 0 3.316.478 4.692 1.461l3.658-5.03C102.17 1.775 99.36.89 96.264.89h-.04c-2.534.007-4.762.72-6.622 2.118-2.096 1.575-3.212 3.863-3.23 6.618-.008 1.218.215 2.35.665 3.366.432.979 1 1.815 1.685 2.485.636.62 1.433 1.172 2.37 1.638l.943.4 3.185.962 1.812.537c.391.114.827.291 1.299.527.443.222.68.407.8.523.085.084.217.25.36.567.095.211.143.487.143.818-.002.922-.298 1.332-.742 1.664-.789.589-1.756.886-2.956.91h-.11c-2.558 0-5.066-1.742-6.733-2.9l-.08-.055-3.59 5.078.08.054c2.034 1.413 5.791 4.023 10.325 4.023.076 0 .153 0 .23-.002 2.528-.048 4.748-.774 6.6-2.158 2.11-1.576 3.227-3.86 3.232-6.605.002-1.212-.23-2.34-.687-3.356M69.79 22.286c.708-1.687 1.428-3.394 2.163-5.13.676 1.62 1.365 3.26 2.06 4.909-1.41.07-2.816.143-4.223.22zM72.062 0l-3.138 7.331a1738.48 1738.48 0 0 0-11.085 26.447 541.68 541.68 0 0 1 7.441-.647c.57-1.382 1.142-2.77 1.725-4.175 3.226-.193 6.472-.366 9.71-.515.538 1.26 1.083 2.533 1.632 3.812 2.358-.13 4.717-.245 7.077-.346-3.7-8.583-7.118-16.696-10.334-24.531L72.062 0zM168.336 17.606c-.043-3.118.987-6.012 2.826-7.94.924-.97 2.472-2.121 4.586-2.121h.05c1.63.029 3.258.058 4.886.089L180.8.978l-4.923-.09h-.102c-3.386 0-6.629 1.449-9.142 4.085-3.043 3.19-4.75 7.83-4.682 12.728.125 9.129 6.22 17.084 13.903 18.115 1.62.202 3.239.411 4.856.628l.815-6.602c-1.636-.22-3.273-.432-4.884-.632-4.423-.594-8.227-5.908-8.305-11.604M19.888 16.83c-4.383.38-8.781.79-13.153 1.226L6.8.889H.166L0 42.667c2.209-.466 4.423-.916 6.64-1.352l.069-16.708c4.352-.438 8.735-.85 13.105-1.232l-.178 15.557c2.212-.376 4.427-.738 6.646-1.086L26.695.889H20.06l-.173 15.94zM193.947 26.872c.755-2.153 1.51-4.316 2.265-6.504a951.46 951.46 0 0 1 2.356 7.125c-1.54-.212-3.08-.42-4.621-.621m5.376-17.764L196.167 0l-3.077 9.134c-3.261 9.68-6.497 18.926-9.785 27.969 2.213.327 4.423.669 6.63 1.025.593-1.641 1.187-3.288 1.778-4.945 3.033.39 6.07.803 9.088 1.235.628 1.971 1.245 3.95 1.862 5.93 2.45.458 4.896.935 7.337 1.43a965.054 965.054 0 0 0-10.677-32.67M57.839.889h-6.606l-.26 18.537c-.066 4.7-3.355 9.052-7.186 9.504-1.316.158-2.501-.23-3.525-1.149-1.61-1.446-2.548-4.025-2.51-6.9L38.014.89h-6.606l-.262 19.904c-.064 4.817 1.648 9.15 4.697 11.888 2.091 1.878 4.677 2.875 7.391 2.875.441 0 .885-.027 1.332-.08 7.183-.847 12.9-7.856 13.013-15.957l.26-18.63zM138.108 32.366c4.905.285 9.804.643 14.694 1.069 1.386.11 2.768.224 4.144.343l.554-6.5c-4.3-.374-8.656-.7-12.99-.976l-.075-6.916c2.57.09 5.14.189 7.693.297l.271-6.519a1028.97 1028.97 0 0 0-8.035-.309l-.057-5.26c4.194.039 8.391.083 12.52.133l.077-6.818c-5.218-.064-10.548.044-15.84 0h-3.296l.126 11.743-1.578-.045-.172 6.522c.605.016 1.214.034 1.821.052l.143 13.184zM106.992 7.306c2.963 0 5.945.004 8.933.01l.11 23.668c2.01.033 4.02.072 6.031.127l.605-.003-.11-23.773c3.037.012 6.072.025 9.095.042l.039-6.468c-8.289-.048-16.662.005-24.915 0v6.397h.212z" mask="url(#f)"/>
    </g>
</svg>
